# xmcd
#
# Track frame offsets: 
#        150
#        11234
#        18919
#        26592
#        29818
#        38108
#        48063
#        58834
#        72802
#        87480
#        107517
#        112180
#        122936
#        136251
#        147154
#        160241
#        173829
#        187895
#        200069
#        216002
#        229010
#        239452
#        250650
#        261619
#        271561
#        281030
#        290592
#        302290
#        311788
#        319392
#        332863
#
# Disc length: 4551 seconds
#
# Revision: 0
# Processed by: cddbd v1.5.2PL0 Copyright (c) Steve Scherf et al.
# Submitted via: ExactAudioCopy v1.1
#
DISCID=d111c51f
DTITLE=Various Artist - Louisiana Hayride_CD03
DYEAR=2017
DGENRE=Country
TTITLE0=Eddy Arnold - I'm Throwing Rice
TTITLE1=Eddy Arnold - Cattle Call
TTITLE2=Horace Logan - Hayride ad sales pitch
TTITLE3=Intro theme
TTITLE4=Jimmy Lee - Jimmy's Boogie
TTITLE5=Goldie Hill - Why Talk To My Heart
TTITLE6=The Rhythm Harmoneers - Mountain Dew
TTITLE7=Tommy Trent - No Muss, No Fuss, No Bother
TTITLE8=Jerry Green - I Hate To Lose You Darlin'
TTITLE9=Hank Williams - Jambalaya
TTITLE10=Out theme and announcements
TTITLE11=The Maddox Brothers and Rose - The Land Just Over The Stars
TTITLE12=Red Sovine - That's Me Without You (& Jax beer ad and Logan t
TTITLE12=alk)
TTITLE13=Tommy Hill - I Ain't Sittin' Where I Was
TTITLE14=Jimmy Lee - Blowin' And Goin'
TTITLE15=Hillbilly Barton - No Interest
TTITLE16=Goldie Hill - Don't Send No More Roses
TTITLE17=Bill Carlisle - Too Old To Cut The Mustard
TTITLE18=Ginny Wright - How To Get Married
TTITLE19=Elvis Presley - That's All Right (& Lucky Strike talk and int
TTITLE19=ro)
TTITLE20=Elvis Presley - Blue Moon Of Kentucky
TTITLE21=Dobber Johnson - Black Mountain Rag
TTITLE22=Tibby Edwards - Much Too Young To Die
TTITLE23=Jimmy Newman - Cry Cry Darlin'
TTITLE24=Elvis Presley - Hearts Of Stone
TTITLE25=Elvis Presley - Blue Moon Of Kentucky
TTITLE26=Elvis Presley - I Don't Care If The Sun Don't Shine
TTITLE27=Elvis Presley - Little Mama
TTITLE28=Elvis Presley - Shake Rattle And Roll
TTITLE29=Jimmy Lee and Wayne Walker - Lips That Kiss So Sweetly (& Glade
TTITLE29=water intro and history)
TTITLE30=The Browns - Draggin' Main Street
EXTD=
EXTT0=
EXTT1=
EXTT2=
EXTT3=
EXTT4=
EXTT5=
EXTT6=
EXTT7=
EXTT8=
EXTT9=
EXTT10=
EXTT11=
EXTT12=
EXTT13=
EXTT14=
EXTT15=
EXTT16=
EXTT17=
EXTT18=
EXTT19=
EXTT20=
EXTT21=
EXTT22=
EXTT23=
EXTT24=
EXTT25=
EXTT26=
EXTT27=
EXTT28=
EXTT29=
EXTT30=
PLAYORDER=
